<?xml version="1.0" encoding="UTF-8"?>
<!-- Generator: Adobe Illustrator 16.0.0, SVG Export Plug-In . SVG Version: 6.00 Build 0)  -->
<!DOCTYPE svg PUBLIC "-//W3C//DTD SVG 1.1//EN" "http://www.w3.org/Graphics/SVG/1.1/DTD/svg11.dtd">
<svg version="1.1" id="Layer_1" xmlns="http://www.w3.org/2000/svg" xmlns:xlink="http://www.w3.org/1999/xlink" x="0px" y="0px" width="153.333px" height="120px" viewBox="0 0 153.333 120" enable-background="new 0 0 153.333 120" xml:space="preserve">
<g>
	<g>
		<g id="palette_2_">
			<path fill="#010101" d="M56.735,109.02c-14.139,0-27.376-5.451-37.274-15.35C9.562,83.771,4.11,70.533,4.11,56.395     c0-14.138,5.451-27.375,15.351-37.274C29.359,9.221,42.598,3.77,56.735,3.77c14.082,0,27.303,4.877,37.228,13.733     c9.929,8.86,15.396,20.64,15.396,33.17c0,16.675-13.061,29.737-29.734,29.737H69.323c-3.974,0-7.459,3.484-7.459,7.457     c0,1.912,0.982,3.421,2.04,5.008c1.777,1.81,2.538,3.741,2.538,6.436C66.442,104.482,61.906,109.02,56.735,109.02z M56.735,6.02     C28.958,6.02,6.36,28.618,6.36,56.395c0,27.777,22.598,50.375,50.375,50.375c3.973,0,7.457-3.485,7.457-7.459     c0-2.137-0.549-3.518-1.959-4.925l-0.142-0.172c-1.161-1.742-2.478-3.717-2.478-6.347c0-5.171,4.537-9.707,9.709-9.707h10.301     c15.412,0,27.484-12.074,27.484-27.487c0.001-11.88-5.199-23.064-14.644-31.491C82.953,10.694,70.264,6.02,56.735,6.02z      M88.208,57.52c-5.172,0-9.709-4.537-9.709-9.708s4.537-9.708,9.709-9.708c5.171,0,9.707,4.537,9.707,9.708     S93.379,57.52,88.208,57.52z M88.208,40.354c-3.974,0-7.459,3.485-7.459,7.458s3.485,7.458,7.459,7.458     c3.973,0,7.457-3.485,7.457-7.458S92.181,40.354,88.208,40.354z M25.263,57.52c-5.172,0-9.709-4.537-9.709-9.708     s4.537-9.708,9.709-9.708c5.171,0,9.707,4.537,9.707,9.708S30.434,57.52,25.263,57.52z M25.263,40.354     c-3.974,0-7.459,3.485-7.459,7.458s3.485,7.458,7.459,7.458c3.973,0,7.457-3.485,7.457-7.458S29.235,40.354,25.263,40.354z      M71.04,34.632c-5.171,0-9.707-4.537-9.707-9.708c0-5.172,4.536-9.709,9.707-9.709c5.172,0,9.709,4.537,9.709,9.709     C80.749,30.095,76.212,34.632,71.04,34.632z M71.04,17.465c-3.973,0-7.457,3.485-7.457,7.459c0,3.973,3.484,7.458,7.457,7.458     c3.974,0,7.459-3.485,7.459-7.458C78.499,20.95,75.014,17.465,71.04,17.465z M42.429,34.632c-5.172,0-9.709-4.537-9.709-9.708     c0-5.172,4.537-9.709,9.709-9.709s9.709,4.537,9.709,9.709C52.138,30.095,47.601,34.632,42.429,34.632z M42.429,17.465     c-3.974,0-7.459,3.485-7.459,7.459c0,3.973,3.485,7.458,7.459,7.458s7.459-3.485,7.459-7.458     C49.888,20.95,46.402,17.465,42.429,17.465z"/>
		</g>
	</g>
	<path fill="#010101" d="M94.624,109.327c-1.318,0-2.557-0.506-3.488-1.425c-0.926-0.915-1.438-2.131-1.438-3.424   c0-1.294,0.512-2.51,1.438-3.425l34.32-33.886l-0.053-0.479c-0.318-2.944,0.453-5.383,2.293-7.248   c1.594-1.613,6.066-4.173,11.287-4.173c4.24,0,8.125,1.643,11.572,4.887c-1.859,0.407-4.432,1.515-5.75,4.505l-0.023,0.055   l-0.018,0.057c-1.809,5.924-5.588,8.927-11.23,8.927l-0.762-0.013L98.11,107.902C97.181,108.821,95.942,109.327,94.624,109.327z    M92.526,102.388c-0.564,0.557-0.877,1.3-0.877,2.091c0,0.79,0.313,1.533,0.877,2.091c0.561,0.553,1.307,0.858,2.098,0.858   c0.793,0,1.537-0.306,2.1-0.859l26.098-25.768l-4.215-4.163L92.526,102.388z M119.976,75.285l4.215,4.163l5.613-5.542l-4.215-4.162   L119.976,75.285z M140.249,56.881c-4.863,0-9.736,2.571-11.15,3.882c-1.498,1.39-2.309,3.086-2.344,4.907   c-0.033,1.729,0.646,3.152,0.922,3.428l3.025,2.988l0.316,0.05c0.053,0.009,0.523,0.079,1.271,0.079   c2.453,0,8.451-0.788,11.199-8.089c1.199-2.471,2.834-3.78,2.85-3.794l1.01-0.799l-1.021-0.782   C144.7,57.51,142.655,56.881,140.249,56.881z"/>
</g>
</svg>