<?xml version="1.0" encoding="UTF-8"?>
<!-- Generator: Adobe Illustrator 16.0.0, SVG Export Plug-In . SVG Version: 6.00 Build 0)  -->
<!DOCTYPE svg PUBLIC "-//W3C//DTD SVG 1.1//EN" "http://www.w3.org/Graphics/SVG/1.1/DTD/svg11.dtd">
<svg version="1.1" id="Layer_1" xmlns="http://www.w3.org/2000/svg" xmlns:xlink="http://www.w3.org/1999/xlink" x="0px" y="0px" width="144px" height="120px" viewBox="0 0 144 120" enable-background="new 0 0 144 120" xml:space="preserve">
<g>
	<path fill="#010101" d="M110.568,110.013c-9.119,0-17.023-6.794-18.389-15.803l-0.258-1.7H52.08l-0.258,1.7   c-1.365,9.009-9.271,15.803-18.389,15.803c-9.121,0-17.025-6.794-18.391-15.803l-0.258-1.7h-8.15c-0.605,0-1.098-0.492-1.098-1.098   s0.492-1.099,1.098-1.099h8.152l0.256-1.702c0.293-1.937,0.896-3.817,1.797-5.59l1.475-2.905H6.635   c-0.605,0-1.098-0.491-1.098-1.095V11.084c0-0.604,0.492-1.097,1.098-1.097h82.367c0.604,0,1.094,0.492,1.094,1.097v67.938   c0,0.604-0.49,1.095-1.094,1.095H48.547l1.479,2.906c0.898,1.767,1.502,3.647,1.797,5.59l0.258,1.701h39.842l0.258-1.7   c1.363-9.009,9.27-15.803,18.389-15.803s17.027,6.794,18.393,15.803l0.258,1.7h7.049V57.026l-9.963-21.381h-28.01   c-0.605,0-1.1-0.492-1.1-1.097c0-0.605,0.494-1.098,1.1-1.098h28.709c0.426,0,0.816,0.248,0.996,0.632l10.361,22.237   c0.068,0.146,0.102,0.304,0.102,0.463v34.629c0,0.605-0.492,1.098-1.098,1.098h-8.146l-0.258,1.7   C127.594,103.219,119.688,110.013,110.568,110.013z M110.568,75.006c-9.045,0-16.404,7.359-16.404,16.406   c0,9.045,7.359,16.403,16.404,16.403c8.801,0,16.006-6.969,16.391-15.677l0.016-0.019v-1.305l-0.012-0.019   C126.637,82.034,119.406,75.006,110.568,75.006z M33.434,75.006c-9.047,0-16.408,7.359-16.408,16.406   c0,9.045,7.361,16.403,16.408,16.403c9.045,0,16.404-7.358,16.404-16.403C49.838,82.365,42.479,75.006,33.434,75.006z    M33.434,72.811c4.496,0,8.844,1.639,12.24,4.615l0.566,0.496h41.662V12.183H7.734v65.739h12.891l0.566-0.496   C24.586,74.449,28.934,72.811,33.434,72.811z"/>
	<path fill="#010101" d="M99.639,57.883c-0.605,0-1.098-0.493-1.098-1.1V45.188c0-0.605,0.492-1.098,1.098-1.098h20.088   c0.426,0,0.816,0.248,0.994,0.632l5.352,11.482l0.031,0.056c0.088,0.16,0.131,0.337,0.131,0.523c0,0.606-0.492,1.1-1.096,1.1   H99.639z M100.736,55.686h22.674l-4.383-9.4h-18.291V55.686z"/>
</g>
</svg>