<?xml version="1.0" encoding="UTF-8"?>
<!-- Generator: Adobe Illustrator 16.0.0, SVG Export Plug-In . SVG Version: 6.00 Build 0)  -->
<!DOCTYPE svg PUBLIC "-//W3C//DTD SVG 1.1//EN" "http://www.w3.org/Graphics/SVG/1.1/DTD/svg11.dtd">
<svg version="1.1" id="Layer_1" xmlns="http://www.w3.org/2000/svg" xmlns:xlink="http://www.w3.org/1999/xlink" x="0px" y="0px" width="120px" height="120px" viewBox="0 0 120 120" enable-background="new 0 0 120 120" xml:space="preserve">
<g>
	<path fill="#010101" d="M98.949,24.19l13.865,3.717L63.793,56.141l1.916,1.119l50.084-28.847c0.518-0.299,0.492-0.811,0.473-0.961   c-0.02-0.149-0.129-0.649-0.705-0.805l-16.498-4.42c-0.082-0.021-0.164-0.033-0.248-0.033c-0.17,0-0.336,0.045-0.482,0.13   L52.271,49.416l1.428,0.833L98.949,24.19z"/>
	<g>
		<path fill="#010101" d="M47.077,68.085l51.255,29.593c0.146,0.084,0.313,0.129,0.48,0.129c0.084,0,0.168-0.012,0.252-0.033    l16.494-4.418c0.578-0.155,0.688-0.657,0.707-0.807c0.02-0.15,0.045-0.662-0.473-0.96L61.08,60.001l-1.928-1.113l-10.149-5.86    l-1.443-0.783l-1.678-1.018l-8.387-4.843l-0.063-0.047c-0.057-0.043-0.123-0.082-0.199-0.114l-0.066-0.028L17.62,34.909    l2.811-0.819c1.01-0.294,1.969-0.702,2.855-1.215c1.977-1.141,3.627-2.791,4.771-4.772c1.145-1.98,1.748-4.234,1.748-6.52    c0-4.644-2.498-8.971-6.52-11.293c-1.979-1.142-4.232-1.745-6.52-1.745c-2.288,0-4.544,0.604-6.521,1.746    c-4.021,2.321-6.52,6.648-6.52,11.292c0,4.499,2.398,8.759,6.258,11.117l0.061,0.036l0.053,0.042    c0.043,0.032,0.088,0.063,0.148,0.098l25.892,14.949l4.926,14.443l-0.08-0.047l0.082,0.052l0.01,0.027l0.68,2.359l3.482,2.322    L47.077,68.085z M11.211,31.207c-3.428-1.979-5.557-5.665-5.559-9.623c0.002-3.957,2.131-7.645,5.557-9.624    c1.689-0.974,3.611-1.489,5.558-1.489c1.945,0,3.867,0.516,5.555,1.489c3.428,1.979,5.557,5.667,5.557,9.625    c0,1.95-0.514,3.871-1.488,5.557c-0.973,1.686-2.379,3.091-4.066,4.064c-1.688,0.976-3.609,1.491-5.557,1.491    C14.82,32.697,12.898,32.182,11.211,31.207z M98.949,95.809L43.448,63.65l-5.045-14.514l74.409,42.958L98.949,95.809z"/>
		<path fill="#010101" d="M36.22,72.04L10.248,87.124c-4.023,2.321-6.521,6.648-6.521,11.292c0,2.284,0.604,4.538,1.748,6.52    s2.795,3.633,4.771,4.773c1.977,1.143,4.232,1.746,6.521,1.746c2.287,0,4.543-0.604,6.52-1.746l15.688-9.057    c4.021-2.321,6.52-6.648,6.52-11.293c0-4.644-2.498-8.97-6.52-11.292c-0.859-0.495-1.824-0.901-2.869-1.206l-2.809-0.82    l3.879-2.239l0.07-0.029c0.07-0.03,0.137-0.068,0.197-0.114l0.061-0.045l5.059-2.921l-1.902-1.385l-3.244,2.05 M38.011,98.984    l-15.688,9.057c-1.688,0.975-3.609,1.49-5.557,1.49c-1.946,0-3.868-0.516-5.558-1.49c-1.686-0.975-3.092-2.38-4.066-4.067    c-0.975-1.686-1.49-3.607-1.49-5.558c0.002-3.957,2.131-7.644,5.559-9.623l15.687-9.057c1.689-0.975,3.609-1.489,5.557-1.489    c1.945,0,3.867,0.515,5.555,1.489c3.428,1.979,5.557,5.665,5.557,9.623S41.437,97.005,38.011,98.984z"/>
	</g>
	<circle fill="#010101" cx="49.664" cy="60.778" r="2.688"/>
</g>
</svg>