<?xml version="1.0" encoding="utf-8"?>
<!-- Generator: Adobe Illustrator 19.2.0, SVG Export Plug-In . SVG Version: 6.00 Build 0)  -->
<svg version="1.1" id="Layer_1" xmlns="http://www.w3.org/2000/svg" xmlns:xlink="http://www.w3.org/1999/xlink" x="0px" y="0px"
	 viewBox="0 0 200 200" style="enable-background:new 0 0 200 200;" xml:space="preserve">
<style type="text/css">
	.st0{fill:#999999;}
</style>
<g id="QYWziK_1_">
	<g>
		<path class="st0" d="M74,180.6c-14.2,0-27.7,0-41.9,0c0-3.4,0-6.5,0-9.6c0-13.2-0.1-26.3,0.1-39.5c0-3.1-0.7-4.7-4.1-4.5
			c-4.3,0.3-5.9-2.2-5.9-6.2c0.1-15.3,0-30.6,0.2-45.9c0.1-10.3,9.1-17.2,19.1-14.9c1.1,0.3,2.2,1.8,2.6,2.9c1.5,4,2.6,8.2,3.9,12.5
			c4.7-5.7,4.8-7.2,0.9-12.9c2.7,0,5.2,0,8.2,0c-4.7,4.2-2.7,8.2,0.8,12.9c1.4-4.3,2.8-8.1,3.8-12c0.7-2.8,2-3.6,4.9-3.7
			c11.1-0.2,17.2,5.5,17.3,16.5c0,14.8,0,29.6,0,44.5c0,4.1-1.5,6.5-5.8,6.3c-3.4-0.2-4.2,1.4-4.1,4.5c0.1,14.5,0.1,29,0,43.5
			C74,176.8,74,178.5,74,180.6z"/>
		<path class="st0" d="M138.9,176.5c-10.9,0-21.5,0-32.7,0c0-17.5,0-34.7,0-52.5c-6.1,0-11.7,0-17.6,0c0-2.8,0-5,0-7.9
			c5.6,0,11.2,0,17.3,0c0-17.9,0-35.1,0-52.7c11.3,0,22.1,0,33.1,0c0,2.3,0,4.5,0,7.5c-6.6,0-13.2,0.2-19.8-0.1
			c-4.1-0.2-5.1,1.4-5,5.1c0.2,11.7,0.2,23.3,0,35c-0.1,4.1,1.4,5.2,5.2,5c6.5-0.3,12.9-0.1,19.6-0.1c0,2.8,0,5.1,0,7.8
			c-8,0-15.9,0-24.4,0c-0.1,2.5-0.4,4.6-0.4,6.7c0,11.2,0.1,22.3-0.1,33.5c-0.1,3.4,1,4.8,4.5,4.6c4.7-0.2,9.3-0.1,14-0.1
			C139.9,168.6,139.9,168.7,138.9,176.5z"/>
		<path class="st0" d="M53.2,19.8c8.2,0.1,12.7,3.6,14.8,11.3c0.3,1.2,0.9,2.5,1.6,3.5c2.9,4.4,2.5,6.7-1.6,10c-1,0.8-1.5,2-2.3,3.1
			c-1.6,2.3-2.8,5-4.7,7c-5.1,5.6-11.3,5.5-16.3-0.2c-3.3-3.8-6.4-7.8-9.1-12c-0.9-1.4-0.9-4-0.4-5.7c1-3.2,2.5-6.3,4-9.4
			C42.1,21.7,47.1,19.7,53.2,19.8z"/>
		<path class="st0" d="M147.8,54.7c2.3,2.7,4.4,5,6.7,7.6c7.1-5.8,14-11.4,21.2-17.2c1.5,1.8,2.8,3.4,4.6,5.6
			c-9,7.3-17.7,14.5-26.9,22c-3.7-4.5-7.3-8.8-11.1-13.5C144.2,57.8,145.9,56.3,147.8,54.7z"/>
		<path class="st0" d="M153.5,165.3c4.2,0,8,3.7,8,7.9c0.1,4.6-3.6,8.1-8.3,8c-4.4-0.1-8-3.8-7.8-8
			C145.5,169,149.3,165.3,153.5,165.3z"/>
		<path class="st0" d="M153.5,112c4.5,0,7.9,3.4,8,7.8c0.1,4.2-3.5,8-7.8,8.1c-4.4,0.1-8.4-3.8-8.3-8.1
			C145.5,115.4,149,112,153.5,112z"/>
	</g>
</g>
</svg>
