<?xml version="1.0" encoding="utf-8"?>
<!-- Generator: Adobe Illustrator 19.2.0, SVG Export Plug-In . SVG Version: 6.00 Build 0)  -->
<svg version="1.1" id="Layer_1" xmlns="http://www.w3.org/2000/svg" xmlns:xlink="http://www.w3.org/1999/xlink" x="0px" y="0px"
	 viewBox="0 0 200 200" style="enable-background:new 0 0 200 200;" xml:space="preserve">
<style type="text/css">
	.st0{fill:#999999;}
</style>
<g id="_x39_UGbSH_1_">
	<g>
		<path class="st0" d="M46.2,35.7c0,1.9,0,3.8,0,5.8c0,36.6,0,73.3,0,109.9c0,6.5,0,6.5,6.6,6.5c25.1,0,50.3-0.1,75.4,0.1
			c4.6,0,6-1.4,5.8-5.9c-0.3-10,0.1-20-0.2-30c-0.1-4.4,1-7.6,4.4-10.4c2.6-2.2,4.7-5.1,7-7.7c0.4,0.2,0.9,0.4,1.3,0.6
			c0.1,1.3,0.4,2.7,0.4,4c0,20.3,0,40.6,0,61c0,8.2-3.3,11.4-11.6,11.4c-30.3,0-60.6,0-90.9,0c-8.3,0-11.6-3.2-11.6-11.4
			c0-41,0-81.9,0-122.9C33.1,38.1,37.4,34.4,46.2,35.7z"/>
		<path class="st0" d="M115.1,118.7c-4.8-4.6-9.5-9.2-14.3-13.8c-0.9,0.1-1.8,0.2-2.7,0.3c3.1-2.6,6.5-5.1,9.4-7.9
			c18.7-18.3,37.3-36.7,55.8-55.2c2.5-2.5,4.4-3,7.1-0.8c0.9,0.8,1.9,1.3,2.8,2.1c8.9,7.3,9.1,9.8,1.1,17.6
			c-19.1,18.9-38.1,37.8-57.2,56.6c-1.1,1-2.2,2-3.3,3.1C114.2,120,114.6,119.4,115.1,118.7z"/>
		<path class="st0" d="M65.1,33.3c1.8-0.2,2.9-0.5,4-0.4c4,0.5,5.9-0.6,6.2-5.2C75.8,21.1,82,16,89,15.4c6.5-0.6,13.9,3.4,15.2,9.7
			c1.3,6.3,3.4,9.6,10.9,7.5c0,4.5,0.3,8.2-0.1,12c-0.3,3.6-3,5.1-6.3,5.1c-12.3,0.1-24.6,0.1-36.9,0c-4,0-6.6-2.2-6.6-6.5
			C65,40.1,65.1,36.9,65.1,33.3z M90.1,34.7c2.7-3.6,5.3-5.6,5.7-7.9c0.6-3.5-1.9-5.9-5.7-6c-3.8,0-6.3,2.5-5.7,6
			C84.7,29.1,87.4,31.1,90.1,34.7z"/>
		<path class="st0" d="M123.7,66.8c-2.4,1-4.7,2.7-7.1,2.7c-18.8,0.2-37.6,0.1-56.4,0.1c-2.8,0-5.3,0-3.9-4.3c22.2,0,44.4,0,66.7,0
			C123.2,65.9,123.4,66.4,123.7,66.8z"/>
		<path class="st0" d="M56.5,78.5c18.1,0,35.8,0,53.5,0c0.2,0.5,0.3,1,0.5,1.6c-2.5,0.9-5,2.6-7.5,2.7c-14.3,0.3-28.6,0.1-42.9,0.2
			C57,82.9,55.1,82.4,56.5,78.5z"/>
		<path class="st0" d="M55.6,94.6c1-1.1,2-3.1,3-3.1c12.7-0.2,25.4-0.1,38.1-0.1c0.2,0.4,0.3,0.8,0.5,1.2c-1.8,1.1-3.6,3.1-5.4,3.2
			c-11.8,0.3-23.5,0.1-35.3,0.1C56.2,95.4,55.9,95,55.6,94.6z"/>
		<path class="st0" d="M134.3,55c0-7,0-13.2,0-20.5c3.3,0.9,6.3,1.2,8.7,2.6c4.3,2.4,4.4,5.5,0.9,9c-2.5,2.5-5,4.9-7.5,7.3
			C136,53.8,135.5,54.1,134.3,55z"/>
		<path class="st0" d="M90.3,121.8c3,3.2,5.1,5.3,7.8,8.2c-3.4,1-6.3,1.9-10.5,3.2C88.5,129.1,89.3,126.1,90.3,121.8z"/>
	</g>
</g>
</svg>
