<?xml version="1.0" encoding="utf-8"?>
<!-- Generator: Adobe Illustrator 19.2.0, SVG Export Plug-In . SVG Version: 6.00 Build 0)  -->
<svg version="1.1" id="Layer_1" xmlns="http://www.w3.org/2000/svg" xmlns:xlink="http://www.w3.org/1999/xlink" x="0px" y="0px"
	 viewBox="0 0 200 200" style="enable-background:new 0 0 200 200;" xml:space="preserve">
<style type="text/css">
	.st0{fill:#999999;}
</style>
<g id="_x34_Vf8hz_1_">
	<g>
		<path class="st0" d="M157.7,110.4c0.1,35.8-27.3,64.8-63.2,67.3c-34.9,2.4-66.3-23.4-71.2-58.6c-6.9-49.6,42.1-89.7,89.2-73
			c3.2,1.1,9.9,12.2,9.2,15.3c-0.8,4.1-8,7.6-11.9,5.9c-17.9-8-38.4-4.4-52.2,9.2c-14,13.7-18,34.2-10.4,52.1
			c7.6,17.7,25.5,29.1,44.9,28.5c32.5-1,54.5-35.4,41.3-65.3c-2.5-5.6,1.7-6.8,3.8-9.8c2.1-3.1,4.4-1.8,7.3-1.1
			c12.1,2.9,11.6,13,13.1,22C158.1,105.3,157.7,107.9,157.7,110.4z"/>
		<path class="st0" d="M120.9,97.8c6.2,13.4,1.2,31.2-12,39.9c-13,8.6-30.7,7-41.8-3.9c-11.4-11.3-13.3-28.7-4.5-42.1
			C71.4,78.5,88,73.4,104,79.8c-4.3,4.3-8.3,8.3-12.4,12.4c-2.6,2.6-5.3,5.1-7.7,7.8c-4.8,5.3-4.6,12.8,0.2,17.6
			c4.9,4.8,12.4,5.1,17.5,0.1C108.1,111.3,114.2,104.8,120.9,97.8z"/>
		<path class="st0" d="M148.5,21.6c2.6,6,4.8,11,7.1,16.3c3.7-1.6,6.6-7.6,11.1-2.8c3.8,4.1-0.5,7.1-3.2,10.5
			c5.4,2.5,10.3,4.7,16.1,7.3c-8.1,8-15.8,15.6-23.6,23c-0.8,0.8-3,0.5-4.4,0c-4.5-1.5-9.3-5.3-13.3-4.5c-4,0.8-7.1,6-10.5,9.4
			c-9.9,9.9-19.8,19.7-29.6,29.7c-2.7,2.7-5.6,5-8.9,1.4c-3-3.2-0.9-6,1.6-8.6c12.4-12.3,24.7-24.7,37.1-37c2.2-2.1,3-3.8,1.5-6.8
			c-2-4.1-5.4-9-4.6-12.7c0.8-3.9,5.9-6.8,9.2-10.2C138.8,31.8,143.4,27,148.5,21.6z"/>
	</g>
</g>
</svg>
