<?xml version="1.0" encoding="utf-8"?>
<!-- Generator: Adobe Illustrator 16.0.4, SVG Export Plug-In . SVG Version: 6.00 Build 0)  -->
<!DOCTYPE svg PUBLIC "-//W3C//DTD SVG 1.1//EN" "http://www.w3.org/Graphics/SVG/1.1/DTD/svg11.dtd">
<svg version="1.1" id="Layer_1" xmlns="http://www.w3.org/2000/svg" xmlns:xlink="http://www.w3.org/1999/xlink" x="0px" y="0px"
	 width="514.748px" height="145.601px" viewBox="0 0 514.748 145.601" enable-background="new 0 0 514.748 145.601"
	 xml:space="preserve">
<polygon points="11.971,38.274 0,38.274 0,32.127 30.629,32.127 30.629,38.274 18.657,38.274 18.657,69.875 11.971,69.875 "/>
<path d="M50.468,31.858h6.148l16.609,38.016h-7.011l-3.828-9.113H44.537l-3.883,9.113h-6.795L50.468,31.858z M59.959,54.883
	l-6.525-15.099l-6.471,15.099H59.959z"/>
<rect x="83.846" y="32.127" width="6.633" height="37.747"/>
<polygon points="105.685,32.127 112.318,32.127 112.318,63.834 132.162,63.834 132.162,69.874 105.685,69.874 "/>
<path d="M135.774,51.108V51c0-10.623,8.197-19.521,19.79-19.521c11.594,0,19.683,8.79,19.683,19.413V51
	c0,10.624-8.196,19.521-19.791,19.521C143.863,70.521,135.774,61.731,135.774,51.108 M168.292,51.108V51
	c0-7.334-5.339-13.427-12.835-13.427c-7.495,0-12.726,5.985-12.726,13.319V51c0,7.334,5.339,13.427,12.834,13.427
	C163.061,64.428,168.292,58.442,168.292,51.108"/>
<path d="M185.978,32.127h16.824c4.745,0,8.467,1.402,10.893,3.774c1.995,2.05,3.128,4.854,3.128,8.143v0.108
	c0,6.202-3.721,9.922-9.005,11.432l10.191,14.29h-7.819l-9.275-13.157h-0.108h-8.197v13.157h-6.632V32.127z M202.317,50.839
	c4.745,0,7.765-2.481,7.765-6.31v-0.107c0-4.044-2.912-6.255-7.819-6.255h-9.653v12.672H202.317z"/>
<path d="M304.932,64.374l3.991-4.746c3.611,3.128,7.226,4.907,11.917,4.907c4.099,0,6.687-1.886,6.687-4.745v-0.107
	c0-2.697-1.51-4.153-8.521-5.771c-8.034-1.941-12.563-4.313-12.563-11.27v-0.108c0-6.471,5.391-10.947,12.887-10.947
	c5.5,0,9.869,1.672,13.697,4.746l-3.559,5.015c-3.397-2.535-6.795-3.883-10.246-3.883c-3.882,0-6.147,1.996-6.147,4.476v0.108
	c0,2.912,1.726,4.206,8.952,5.932c7.98,1.941,12.133,4.799,12.133,11.054v0.108c0,7.064-5.555,11.27-13.481,11.27
	C314.908,70.413,309.462,68.418,304.932,64.374"/>
<polygon points="353.14,38.274 341.169,38.274 341.169,32.127 371.798,32.127 371.798,38.274 359.826,38.274 359.826,69.875 
	353.14,69.875 "/>
<path d="M377.675,51.108V51c0-10.623,8.197-19.521,19.79-19.521c11.595,0,19.684,8.79,19.684,19.413V51
	c0,10.624-8.196,19.521-19.79,19.521S377.675,61.731,377.675,51.108 M410.192,51.108V51c0-7.334-5.339-13.427-12.834-13.427
	c-7.496,0-12.728,5.985-12.728,13.319V51c0,7.334,5.34,13.427,12.834,13.427C404.962,64.428,410.192,58.442,410.192,51.108"/>
<path d="M427.879,32.127h16.823c4.745,0,8.467,1.402,10.894,3.774c1.995,2.05,3.128,4.854,3.128,8.143v0.108
	c0,6.202-3.721,9.922-9.006,11.432l10.191,14.29h-7.818l-9.275-13.157h-0.107h-8.196v13.157h-6.633V32.127z M444.218,50.839
	c4.745,0,7.765-2.481,7.765-6.31v-0.107c0-4.044-2.912-6.255-7.818-6.255h-9.652v12.672H444.218z"/>
<polygon points="471.18,32.127 499.165,32.127 499.165,38.059 477.812,38.059 477.812,47.873 496.739,47.873 496.739,53.805 
	477.812,53.805 477.812,63.942 499.436,63.942 499.436,69.874 471.18,69.874 "/>
<path fill="#AE0F0A" d="M306.924,7.738c-2.37-3.18-7.811-4.39-12.811-0.88c-3.52,2.46-6.55,5.5-9.33,9.42
	c-3.84-1.05-8.09-2.74-12.67-5.05c-19.43-9.81-32.34-3.23-35.83-0.98c-5.79,3.73-8.97,9.45-8.71,15.71
	c0.36,8.98,7.42,13.98,13.82,14.82c7.46,0.99,13.79-3.19,16.12-10.63c0.31-1-0.25-2.07-1.25-2.38c-0.99-0.31-2.06,0.24-2.38,1.25
	c-2.12,6.79-7.59,8.58-12,8c-4.87-0.64-10.25-4.43-10.52-11.22c-0.2-4.87,2.34-9.38,6.97-12.36c9.64-6.2,22.88-3.46,32.07,1.17
	c4.57,2.31,8.61,3.93,12.19,5c-0.95,1.57-1.88,3.26-2.79,5.08c-0.05,0.1-0.101,0.2-0.15,0.3c-5.2-0.78-10.399,1.24-13.92,4.62
	c-4.63,4.45-6.979,11.99-1.76,18.82c0.64,0.84,1.32,1.61,2.02,2.33c-2.39,4.42-4.6,8.52-6.29,11.73
	c-4.74,8.98-10.77,16.01-17.28,20.37c-1.69-1.72-2.96-3.649-3.63-5.63c-1.83-5.38-1.19-10.43,1.82-14.22
	c2.65-3.34,6.77-5.16,10.72-4.77c1.04,0.1,1.97-0.66,2.08-1.7c0.1-1.05-0.66-1.98-1.7-2.08c-5.24-0.52-10.63,1.85-14.08,6.19
	c-3.83,4.83-4.7,11.15-2.44,17.8c0.76,2.261,2.11,4.44,3.9,6.4c-3.08,1.61-6.23,2.62-9.37,2.96c-7.54,0.8-14.5-2.3-20.13-8.979
	c-0.67-0.801-1.87-0.9-2.67-0.23c-0.8,0.68-0.91,1.88-0.23,2.68c5.79,6.87,12.88,10.45,20.65,10.45c0.92,0,1.85-0.05,2.79-0.149
	c4.01-0.431,8.02-1.811,11.89-4.021c1.55,1.21,3.28,2.28,5.15,3.16c3.9,1.82,8.11,2.729,12.42,2.729c3.89,0,7.859-0.739,11.74-2.239
	c7.869-3.04,13.369-9.271,14.699-16.66c1.16-6.49-1.199-12.89-6.47-17.55c-1.479-1.3-3.07-2.49-4.6-3.65
	c-1.48-1.1-2.92-2.18-4.261-3.34c3.801-7.06,7.91-14.71,10.94-20.59h0.01c1.101,0.46,2.181,1.11,3.23,1.98
	c2.88,2.39,3.109,5.66,2.359,7.91c-0.729,2.19-2.77,4.6-6.31,4.79c-1.05,0.06-1.85,0.95-1.8,2c0.06,1.05,0.97,1.85,2,1.79
	c4.56-0.24,8.279-3.07,9.71-7.38c1.46-4.4,0.1-9.01-3.53-12.03c-1.26-1.05-2.58-1.85-3.939-2.43c1-1.99,2.02-3.79,3.069-5.44
	c9.22,1.95,14.8-0.07,18.101-2.68C308.874,14.498,308.863,10.338,306.924,7.738 M272.684,56.388c1.54,1.16,3,2.25,4.37,3.46
	c4.32,3.81,6.18,8.8,5.24,14.03c-1.091,6.08-5.7,11.229-12.33,13.79c-7.19,2.77-14.71,2.63-21.18-0.391
	c-1.19-0.56-2.31-1.199-3.34-1.92c6.68-4.75,12.811-12,17.61-21.1c1.58-2.99,3.609-6.77,5.81-10.85
	C270.124,54.458,271.413,55.428,272.684,56.388 M267.884,47.228c-0.311-0.35-0.61-0.72-0.9-1.1c-4.05-5.31-1.79-10.74,1.38-13.79
	c2.391-2.28,5.83-3.88,9.44-3.75C274.983,34.018,271.334,40.818,267.884,47.228 M302.184,14.948c-3.09,2.45-7.64,3.17-13.35,2.23
	c2.27-2.94,4.699-5.29,7.46-7.22c3.42-2.39,6.5-1.41,7.59,0.05C304.943,11.428,304.304,13.268,302.184,14.948"/>
<path d="M503.176,33.57c0-0.971,0.257-1.883,0.77-2.733c0.512-0.849,1.218-1.52,2.115-2.011c0.898-0.491,1.865-0.736,2.901-0.736
	c1.025,0,1.987,0.243,2.885,0.729c0.898,0.485,1.606,1.154,2.124,2.004s0.777,1.766,0.777,2.747c0,0.957-0.249,1.856-0.746,2.696
	c-0.498,0.841-1.196,1.513-2.093,2.019c-0.898,0.505-1.88,0.757-2.947,0.757c-1.062,0-2.042-0.251-2.939-0.754
	c-0.897-0.503-1.596-1.174-2.096-2.015C503.426,35.433,503.176,34.532,503.176,33.57 M504.122,33.57c0,0.826,0.217,1.592,0.65,2.299
	c0.433,0.707,1.023,1.264,1.772,1.672c0.749,0.408,1.555,0.613,2.417,0.613c0.872,0,1.682-0.208,2.43-0.623
	c0.749-0.416,1.34-0.974,1.768-1.677c0.429-0.701,0.643-1.464,0.643-2.284c0-0.816-0.218-1.58-0.65-2.292s-1.025-1.271-1.777-1.679
	c-0.751-0.408-1.556-0.613-2.412-0.613c-0.862,0-1.664,0.202-2.404,0.605c-0.742,0.403-1.334,0.96-1.773,1.669
	C504.343,31.97,504.122,32.739,504.122,33.57 M511.308,32.273c0,0.83-0.392,1.396-1.176,1.697l1.823,2.894h-1.624l-1.478-2.522
	h-0.691v2.522h-1.455v-6.581h2.016c0.893,0,1.546,0.166,1.962,0.496C511.102,31.109,511.308,31.607,511.308,32.273 M508.162,33.286
	h0.53c0.38,0,0.668-0.085,0.862-0.255s0.292-0.414,0.292-0.729c0-0.349-0.094-0.594-0.281-0.732
	c-0.187-0.139-0.483-0.208-0.889-0.208h-0.515V33.286z"/>
<path d="M110.028,136.841c0,1.812-0.313,3.4-0.94,4.768c-0.626,1.367-1.521,2.416-2.685,3.148c-1.163,0.731-2.503,1.099-4.018,1.099
	c-1.498,0-2.833-0.367-4.005-1.099c-1.172-0.732-2.078-1.775-2.717-3.13c-0.639-1.354-0.963-2.916-0.971-4.685v-1.041
	c0-1.803,0.319-3.394,0.958-4.773c0.64-1.38,1.541-2.436,2.705-3.168c1.163-0.73,2.499-1.098,4.005-1.098s2.842,0.361,4.005,1.086
	c1.164,0.723,2.063,1.764,2.698,3.123c0.635,1.357,0.957,2.938,0.965,4.742V136.841z M106.816,135.876
	c0-2.048-0.387-3.618-1.162-4.71c-0.774-1.092-1.872-1.638-3.294-1.638c-1.388,0-2.474,0.544-3.256,1.631
	c-0.783,1.088-1.183,2.626-1.2,4.615v1.066c0,2.031,0.395,3.602,1.187,4.71c0.791,1.108,1.89,1.663,3.294,1.663
	c1.422,0,2.516-0.542,3.282-1.625c0.766-1.083,1.149-2.666,1.149-4.748V135.876z"/>
<polygon points="129.451,145.601 126.239,145.601 118,132.486 118,145.601 114.788,145.601 114.788,127.117 118,127.117 
	126.264,140.281 126.264,127.117 129.451,127.117 "/>
<polygon points="145.61,137.349 138.018,137.349 138.018,143.011 146.892,143.011 146.892,145.601 134.806,145.601 134.806,127.117 
	146.803,127.117 146.803,129.706 138.018,129.706 138.018,134.81 145.61,134.81 "/>
<path d="M170.843,140.84c0-0.812-0.286-1.438-0.856-1.879c-0.573-0.439-1.603-0.885-3.092-1.333
	c-1.489-0.448-2.675-0.948-3.555-1.498c-1.685-1.058-2.526-2.437-2.526-4.139c0-1.489,0.607-2.716,1.821-3.682
	c1.215-0.965,2.791-1.447,4.729-1.447c1.287,0,2.434,0.237,3.441,0.711s1.799,1.148,2.374,2.025
	c0.575,0.875,0.863,1.847,0.863,2.913h-3.199c0-0.957-0.303-1.706-0.907-2.247c-0.606-0.542-1.471-0.812-2.597-0.812
	c-1.05,0-1.864,0.224-2.444,0.67c-0.579,0.447-0.869,1.071-0.869,1.871c0,0.675,0.313,1.238,0.939,1.688
	c0.626,0.451,1.659,0.889,3.098,1.314c1.438,0.426,2.593,0.911,3.466,1.458c0.872,0.545,1.51,1.172,1.917,1.879
	c0.406,0.706,0.609,1.533,0.609,2.482c0,1.54-0.59,2.765-1.772,3.674c-1.179,0.911-2.782,1.366-4.804,1.366
	c-1.337,0-2.567-0.248-3.688-0.743c-1.122-0.496-1.994-1.179-2.615-2.051c-0.623-0.871-0.934-1.888-0.934-3.047h3.212
	c0,1.051,0.347,1.862,1.041,2.438c0.695,0.576,1.689,0.864,2.984,0.864c1.117,0,1.957-0.228,2.519-0.681
	C170.562,142.184,170.843,141.585,170.843,140.84"/>
<rect x="178.624" y="127.117" width="3.199" height="18.483"/>
<polygon points="190.874,143.011 200.75,143.011 200.75,145.601 186.988,145.601 186.988,143.498 196.548,129.706 187.052,129.706 
	187.052,127.116 200.445,127.116 200.445,129.147 "/>
<polygon points="216.909,137.349 209.316,137.349 209.316,143.011 218.19,143.011 218.19,145.601 206.104,145.601 206.104,127.117 
	218.102,127.117 218.102,129.706 209.316,129.706 209.316,134.81 216.909,134.81 "/>
<path d="M247.233,136.841c0,1.812-0.314,3.4-0.94,4.768s-1.521,2.416-2.685,3.148c-1.163,0.731-2.503,1.099-4.018,1.099
	c-1.498,0-2.833-0.367-4.006-1.099c-1.171-0.732-2.077-1.775-2.716-3.13c-0.639-1.354-0.962-2.916-0.971-4.685v-1.041
	c0-1.803,0.319-3.394,0.959-4.773c0.639-1.38,1.54-2.436,2.703-3.168c1.164-0.73,2.499-1.098,4.006-1.098
	c1.507,0,2.842,0.361,4.006,1.086c1.163,0.723,2.062,1.764,2.697,3.123c0.635,1.357,0.956,2.938,0.965,4.742V136.841z
	 M244.021,135.876c0-2.048-0.388-3.618-1.161-4.71c-0.776-1.092-1.873-1.638-3.295-1.638c-1.388,0-2.474,0.544-3.256,1.631
	c-0.783,1.088-1.184,2.626-1.2,4.615v1.066c0,2.031,0.395,3.602,1.186,4.71c0.792,1.108,1.89,1.663,3.295,1.663
	c1.422,0,2.516-0.542,3.282-1.625c0.766-1.083,1.149-2.666,1.149-4.748V135.876z"/>
<polygon points="266.655,145.601 263.443,145.601 255.204,132.486 255.204,145.601 251.992,145.601 251.992,127.117 
	255.204,127.117 263.468,140.281 263.468,127.117 266.655,127.117 "/>
<polygon points="275.224,143.011 283.615,143.011 283.615,145.601 272.012,145.601 272.012,127.116 275.224,127.116 "/>
<polygon points="291.166,135.876 295.419,127.116 298.974,127.116 292.778,138.796 292.778,145.602 289.554,145.602 
	289.554,138.796 283.346,127.116 286.913,127.116 "/>
<rect x="309.656" y="135.229" width="12.934" height="2.488"/>
<polygon points="341.409,135.876 345.662,127.116 349.217,127.116 343.021,138.796 343.021,145.602 339.797,145.602 
	339.797,138.796 333.589,127.116 337.156,127.116 "/>
<path d="M366.651,136.841c0,1.812-0.314,3.4-0.94,4.768s-1.521,2.416-2.685,3.148c-1.163,0.731-2.503,1.099-4.019,1.099
	c-1.497,0-2.833-0.367-4.006-1.099c-1.171-0.732-2.077-1.775-2.716-3.13s-0.962-2.916-0.971-4.685v-1.041
	c0-1.803,0.318-3.394,0.959-4.773c0.639-1.38,1.54-2.436,2.703-3.168c1.164-0.73,2.499-1.098,4.006-1.098s2.842,0.361,4.006,1.086
	c1.163,0.723,2.062,1.764,2.697,3.123c0.635,1.357,0.956,2.938,0.965,4.742V136.841z M363.439,135.876
	c0-2.048-0.388-3.618-1.161-4.71c-0.776-1.092-1.873-1.638-3.295-1.638c-1.388,0-2.475,0.544-3.256,1.631
	c-0.783,1.088-1.185,2.626-1.2,4.615v1.066c0,2.031,0.395,3.602,1.186,4.71c0.792,1.108,1.891,1.663,3.295,1.663
	c1.423,0,2.517-0.542,3.282-1.625c0.767-1.083,1.149-2.666,1.149-4.748V135.876z"/>
<path d="M384.411,127.116v12.354c0,1.963-0.628,3.518-1.886,4.665c-1.257,1.146-2.93,1.72-5.021,1.72
	c-2.116,0-3.796-0.564-5.04-1.695c-1.244-1.129-1.867-2.697-1.867-4.703v-12.34h3.2v12.346c0,1.234,0.313,2.176,0.939,2.827
	c0.626,0.65,1.549,0.976,2.768,0.976c2.471,0,3.707-1.301,3.707-3.904v-12.244H384.411z"/>
<path d="M396.19,138.491h-3.58v7.109h-3.212v-18.484h6.5c2.133,0,3.778,0.479,4.938,1.436c1.159,0.957,1.739,2.343,1.739,4.155
	c0,1.236-0.299,2.272-0.896,3.106s-1.428,1.476-2.494,1.925l4.151,7.697v0.165h-3.44L396.19,138.491z M392.61,135.901h3.301
	c1.083,0,1.929-0.272,2.539-0.817c0.609-0.548,0.914-1.294,0.914-2.242c0-0.99-0.281-1.755-0.845-2.297
	c-0.562-0.542-1.402-0.822-2.52-0.839h-3.39V135.901z"/>
<path d="M416.844,140.84c0-0.812-0.286-1.438-0.856-1.879c-0.572-0.439-1.603-0.885-3.092-1.333s-2.675-0.948-3.555-1.498
	c-1.686-1.058-2.526-2.437-2.526-4.139c0-1.489,0.607-2.716,1.821-3.682c1.215-0.965,2.791-1.447,4.729-1.447
	c1.287,0,2.435,0.237,3.441,0.711s1.799,1.148,2.374,2.025c0.575,0.875,0.863,1.847,0.863,2.913h-3.199
	c0-0.957-0.303-1.706-0.907-2.247c-0.605-0.542-1.471-0.812-2.597-0.812c-1.05,0-1.864,0.224-2.444,0.67
	c-0.579,0.447-0.869,1.071-0.869,1.871c0,0.675,0.313,1.238,0.939,1.688c0.626,0.451,1.659,0.889,3.098,1.314
	s2.593,0.911,3.466,1.458c0.872,0.545,1.511,1.172,1.917,1.879c0.406,0.706,0.609,1.533,0.609,2.482c0,1.54-0.59,2.765-1.772,3.674
	c-1.179,0.911-2.781,1.366-4.804,1.366c-1.337,0-2.567-0.248-3.688-0.743c-1.122-0.496-1.994-1.179-2.615-2.051
	c-0.623-0.871-0.935-1.888-0.935-3.047h3.212c0,1.051,0.348,1.862,1.041,2.438c0.695,0.576,1.689,0.864,2.984,0.864
	c1.117,0,1.957-0.228,2.52-0.681C416.562,142.184,416.844,141.585,416.844,140.84"/>
</svg>
